<?xml version="1.0" encoding="UTF-8" standalone="no"?>
<svg width="153px" height="65px" viewBox="0 0 153 65" version="1.1" xmlns="http://www.w3.org/2000/svg" xmlns:xlink="http://www.w3.org/1999/xlink" xmlns:sketch="http://www.bohemiancoding.com/sketch/ns">
    <!-- Generator: Sketch 3.1 (8751) - http://www.bohemiancoding.com/sketch -->
    <title>Artboard 1</title>
    <desc>Created with Sketch.</desc>
    <defs></defs>
    <g id="Page-1" stroke="none" stroke-width="1" fill="none" fill-rule="evenodd" sketch:type="MSPage">
        <g id="Artboard-1" sketch:type="MSArtboardGroup" fill="#FFFFFF">
            <g id="text87" sketch:type="MSLayerGroup" transform="translate(51.000000, 1.000000)">
                <g id="Group" sketch:type="MSShapeGroup">
                    <path d="M48.7419355,4.935125 L48.7419355,1.714375 L48.2806452,1.53075 C48.1209677,1.470625 44.366129,0 39.3532258,0 C33.9887097,0 29.3629032,1.64775 25.6,4.899375 C21.8403226,1.64775 17.2145161,0 11.8483871,0 C6.83548387,0 3.08064516,1.470625 2.92419355,1.532375 L2.46290323,1.714375 L2.46290323,4.697875 C0.94516129,4.983875 0,5.49575 0,6.332625 L0,37.07275 L22.4741935,37.07275 C23.25,37.773125 24.3887097,38.218375 25.6580645,38.218375 C26.9290323,38.218375 28.0645161,37.77475 28.8451613,37.07275 L50.7516129,37.07275 L50.7516129,6.332625 C50.75,5.65175 49.9854839,5.208125 48.7419355,4.935125 L48.7419355,4.935125 Z M25.3612903,34.649875 C23.4935484,33.873125 17.066129,31.41125 10.6322581,31.41125 C8.09032258,31.41125 5.83709677,31.8045 3.91774194,32.579625 L3.91774194,2.731625 C5.03548387,2.354625 8.09032258,1.46575 11.8483871,1.46575 C16.7887097,1.46575 21.033871,2.972125 24.5048387,5.9085 L24.5048387,23.725 L25.3612903,22.774375 L25.3612903,34.649875 L25.3612903,34.649875 Z M47.283871,32.58775 C45.2225806,31.754125 42.8564516,31.33325 40.2354839,31.33325 C33.8048387,31.33325 27.6822581,33.81625 25.8419355,34.633625 L25.8419355,22.774375 L26.6983871,23.725 L26.6983871,5.9085 C30.166129,2.972125 34.4129032,1.46575 39.3532258,1.46575 C43.1,1.46575 46.1629032,2.35625 47.283871,2.731625 L47.283871,32.58775 L47.283871,32.58775 Z" id="Shape"></path>
                    <path d="M15.7564516,7.60175 C19.2,8.268 21.5467742,9.546875 21.5870968,9.568 L22.1580645,8.53125 C21.9887097,8.43375 19.4532258,7.04925 15.7548387,6.37325 L15.7548387,7.60175 L15.7564516,7.60175 Z" id="Shape"></path>
                    <path d="M15.7564516,10.9655 C19.2,11.630125 21.5467742,12.910625 21.5870968,12.933375 L22.1580645,11.895 C21.9887097,11.7975 19.4532258,10.413 15.7548387,9.738625 L15.7548387,10.9655 L15.7564516,10.9655 Z" id="Shape"></path>
                    <path d="M15.7564516,14.126125 C19.2,14.792375 21.5467742,16.07125 21.5870968,16.094 L22.1580645,15.055625 C21.9887097,14.9565 19.4532258,13.573625 15.7548387,12.89925 L15.7548387,14.126125 L15.7564516,14.126125 Z" id="Shape"></path>
                    <path d="M15.7564516,17.590625 C19.2,18.256875 21.5467742,19.537375 21.5870968,19.5585 L22.1580645,18.52175 C21.9887097,18.42425 19.4532258,17.038125 15.7548387,16.36375 L15.7548387,17.590625 L15.7564516,17.590625 Z" id="Shape"></path>
                    <path d="M6.8,19.855875 L7.10322581,21.00475 C14.6919355,18.98 21.5193548,22.732125 21.5870968,22.7695 L22.1580645,21.731125 C21.8677419,21.565375 14.8580645,17.706 6.8,19.855875 L6.8,19.855875 Z" id="Shape"></path>
                    <path d="M6.8,23.153 L7.10322581,24.301875 C14.6919355,22.273875 21.5193548,26.026 21.5870968,26.065 L22.1580645,25.02825 C21.8677419,24.860875 14.8580645,21.003125 6.8,23.153 L6.8,23.153 Z" id="Shape"></path>
                    <path d="M6.8,26.45825 L7.10322581,27.607125 C14.6919355,25.5775 21.5193548,29.332875 21.5870968,29.368625 L22.1580645,28.331875 C21.8677419,28.166125 14.8580645,24.30675 6.8,26.45825 L6.8,26.45825 Z" id="Shape"></path>
                    <path d="M29.9629032,9.657375 C30.033871,9.62 36.8596774,5.867875 44.4467742,7.895875 L44.75,6.747 C36.6919355,4.5955 29.6822581,8.4565 29.3887097,8.62225 L29.9629032,9.657375 L29.9629032,9.657375 Z" id="Shape"></path>
                    <path d="M29.3903226,11.984375 L29.9629032,13.021125 C30.033871,12.98375 36.8596774,9.23 44.4467742,11.259625 L44.75,10.109125 C36.6935484,7.957625 29.683871,11.818625 29.3903226,11.984375 L29.3903226,11.984375 Z" id="Shape"></path>
                    <path d="M29.3903226,15.143375 L29.9629032,16.18175 C30.033871,16.14275 36.8596774,12.39225 44.4467742,14.417 L44.75,13.26975 C36.6935484,11.119875 29.683871,14.97925 29.3903226,15.143375 L29.3903226,15.143375 Z" id="Shape"></path>
                    <path d="M29.3903226,18.6095 L29.9629032,19.64625 C30.033871,19.608875 36.8596774,15.855125 44.4467742,17.883125 L44.75,16.73425 C36.6935484,14.581125 29.683871,18.44375 29.3903226,18.6095 L29.3903226,18.6095 Z" id="Shape"></path>
                    <path d="M29.3903226,21.818875 L29.9629032,22.85725 C30.033871,22.81825 36.8596774,19.06775 44.4467742,21.094125 L44.75,19.943625 C36.6935484,17.795375 29.683871,21.653125 29.3903226,21.818875 L29.3903226,21.818875 Z" id="Shape"></path>
                    <path d="M29.3903226,25.116 L29.9629032,26.15275 C30.033871,26.115375 36.8596774,22.36325 44.4467742,24.389625 L44.75,23.242375 C36.6935484,21.090875 29.683871,24.948625 29.3903226,25.116 L29.3903226,25.116 Z" id="Shape"></path>
                    <path d="M29.3903226,28.42125 L29.9629032,29.456375 C30.033871,29.420625 36.8596774,25.66525 44.4467742,27.694875 L44.75,26.546 C36.6935484,24.3945 29.683871,28.2555 29.3903226,28.42125 L29.3903226,28.42125 Z" id="Shape"></path>
                    <path d="M14.4806452,17.381 L14.4806452,6.173375 C14.4806452,6.173375 12.5870968,5.955625 10.6403226,6.007625 C8.69677419,6.06125 6.8,6.657625 6.8,6.657625 L6.8,17.863625 C6.8,17.863625 8.38548387,17.39075 10.4306452,17.24125 C12.4725806,17.09175 14.4806452,17.381 14.4806452,17.381 L14.4806452,17.381 Z" id="Shape"></path>
                </g>
            </g>
            <text id="booooks" sketch:type="MSTextLayer" font-family="Gotham" font-size="36" font-weight="313">
                <tspan x="-2" y="62">booooks</tspan>
            </text>
        </g>
    </g>
</svg>